# xmcd
#
# Track frame offsets:
#	150
#	16899
#	30223
#	41193
#	65360
#	77055
#	98458
#	112669
#	126671
#	150790
#
# Disc length: 2172 seconds
#
# Revision: 1
# Processed by: cddbd v1.5.2PL0 Copyright (c) Steve Scherf et al.
# Submitted via: EasyCDDAExtractor 5.0.6
#
DISCID=66087a0a
DTITLE=Band Of Horses - Everything All The Time
DYEAR=2006
DGENRE=Indie
TTITLE0=The First Song
TTITLE1=Wicked Gil
TTITLE2=Our Swords
TTITLE3=The Funeral
TTITLE4=Part One
TTITLE5=The Great Salt Lake
TTITLE6=Weed Party
TTITLE7=I Go To The Barn Because I Like The
TTITLE8=Monsters
TTITLE9=St. Augustine
EXTD=YEAR: 2006\n
EXTT0=
EXTT1=
EXTT2=
EXTT3=
EXTT4=
EXTT5=
EXTT6=
EXTT7=
EXTT8=
EXTT9=
PLAYORDER=
